<svg width="128" height="38" viewBox="0 0 128 38" fill="none" xmlns="http://www.w3.org/2000/svg">
<path d="M9.625 31H123C123.552 31 124 31.4477 124 32V36C124 36.5523 123.542 37 122.99 37H9.625L4.36519 34.9306C3.52002 34.598 3.52002 33.402 4.36519 33.0694L9.625 31Z" fill="#FFF5BF"/>
<path d="M9.625 31H123C123.552 31 124 31.4477 124 32V36C124 36.5523 123.542 37 122.99 37C78.9538 37 53.9533 37 9.625 37M9.625 31V37M9.625 31L4.36519 33.0694C3.52002 33.402 3.52002 34.598 4.36519 34.9306L9.625 37" stroke="#59520E"/>
<path d="M10 31L3 34L10 37" stroke="#59520E"/>
<path d="M116 31V37" stroke="#59520E"/>
<path d="M19.9432 7.18182V29H17.3864L5.49716 11.8693H5.28409V29H2.64205V7.18182H5.19886L17.1307 24.3551H17.3438V7.18182H19.9432ZM31.5368 29.3409C30.0595 29.3409 28.7633 28.9893 27.6483 28.2862C26.5403 27.5831 25.6738 26.5994 25.0488 25.3352C24.4309 24.071 24.122 22.5937 24.122 20.9034C24.122 19.1989 24.4309 17.7109 25.0488 16.4396C25.6738 15.1683 26.5403 14.1811 27.6483 13.478C28.7633 12.7749 30.0595 12.4233 31.5368 12.4233C33.014 12.4233 34.3066 12.7749 35.4146 13.478C36.5297 14.1811 37.3961 15.1683 38.014 16.4396C38.639 17.7109 38.9515 19.1989 38.9515 20.9034C38.9515 22.5937 38.639 24.071 38.014 25.3352C37.3961 26.5994 36.5297 27.5831 35.4146 28.2862C34.3066 28.9893 33.014 29.3409 31.5368 29.3409ZM31.5368 27.0824C32.6589 27.0824 33.5822 26.7947 34.3066 26.2195C35.0311 25.6442 35.5673 24.8878 35.9153 23.9503C36.2633 23.0128 36.4373 21.9972 36.4373 20.9034C36.4373 19.8097 36.2633 18.7905 35.9153 17.8459C35.5673 16.9013 35.0311 16.1378 34.3066 15.5554C33.5822 14.973 32.6589 14.6818 31.5368 14.6818C30.4146 14.6818 29.4913 14.973 28.7669 15.5554C28.0424 16.1378 27.5062 16.9013 27.1582 17.8459C26.8102 18.7905 26.6362 19.8097 26.6362 20.9034C26.6362 21.9972 26.8102 23.0128 27.1582 23.9503C27.5062 24.8878 28.0424 25.6442 28.7669 26.2195C29.4913 26.7947 30.4146 27.0824 31.5368 27.0824ZM49.9059 12.6364V14.767H41.4258V12.6364H49.9059ZM43.8974 8.71591H46.4116V24.3125C46.4116 25.0227 46.5146 25.5554 46.7205 25.9105C46.9336 26.2585 47.2035 26.4929 47.5302 26.6136C47.864 26.7273 48.2156 26.7841 48.5849 26.7841C48.8619 26.7841 49.0891 26.7699 49.2667 26.7415C49.4442 26.706 49.5863 26.6776 49.6928 26.6562L50.2042 28.9148C50.0337 28.9787 49.7958 29.0426 49.4904 29.1065C49.185 29.1776 48.7979 29.2131 48.3292 29.2131C47.619 29.2131 46.9229 29.0604 46.2411 28.755C45.5664 28.4496 45.0053 27.9844 44.5579 27.3594C44.1175 26.7344 43.8974 25.946 43.8974 24.9943V8.71591ZM60.3729 29.3409C58.7962 29.3409 57.4361 28.9929 56.2926 28.2969C55.1562 27.5938 54.2791 26.6136 53.6612 25.3565C53.0504 24.0923 52.745 22.6222 52.745 20.946C52.745 19.2699 53.0504 17.7926 53.6612 16.5142C54.2791 15.2287 55.1385 14.2273 56.2393 13.5099C57.3473 12.7855 58.6399 12.4233 60.1172 12.4233C60.9695 12.4233 61.8111 12.5653 62.642 12.8494C63.473 13.1335 64.2294 13.5952 64.9112 14.2344C65.593 14.8665 66.1364 15.7045 66.5412 16.7486C66.946 17.7926 67.1484 19.0781 67.1484 20.6051V21.6705H54.5348V19.4972H64.5916C64.5916 18.5739 64.407 17.75 64.0376 17.0256C63.6754 16.3011 63.157 15.7294 62.4822 15.3104C61.8146 14.8913 61.0263 14.6818 60.1172 14.6818C59.1158 14.6818 58.2493 14.9304 57.5178 15.4276C56.7933 15.9176 56.2358 16.5568 55.8452 17.3452C55.4545 18.1335 55.2592 18.9787 55.2592 19.8807V21.3295C55.2592 22.5653 55.4723 23.6129 55.8984 24.4723C56.3317 25.3246 56.9318 25.9744 57.6989 26.4219C58.4659 26.8622 59.3572 27.0824 60.3729 27.0824C61.0334 27.0824 61.63 26.9901 62.1626 26.8054C62.7024 26.6136 63.1676 26.3295 63.5582 25.9531C63.9489 25.5696 64.2507 25.0937 64.4638 24.5256L66.8928 25.2074C66.6371 26.0312 66.2074 26.7557 65.6037 27.3807C65 27.9986 64.2543 28.4815 63.3665 28.8295C62.4787 29.1705 61.4808 29.3409 60.3729 29.3409ZM71.3139 29V7.18182H78.6861C80.3977 7.18182 81.7969 7.49077 82.8835 8.10866C83.9773 8.71946 84.7869 9.54688 85.3125 10.5909C85.8381 11.6349 86.1009 12.7997 86.1009 14.0852C86.1009 15.3707 85.8381 16.5391 85.3125 17.5902C84.794 18.6413 83.9915 19.4794 82.9048 20.1044C81.8182 20.7223 80.4261 21.0312 78.7287 21.0312H73.4446V18.6875H78.6435C79.8153 18.6875 80.7564 18.4851 81.4666 18.0803C82.1768 17.6754 82.6918 17.1286 83.0114 16.4396C83.3381 15.7436 83.5014 14.9588 83.5014 14.0852C83.5014 13.2116 83.3381 12.4304 83.0114 11.7415C82.6918 11.0526 82.1733 10.5128 81.456 10.1222C80.7386 9.72443 79.7869 9.52557 78.6009 9.52557H73.956V29H71.3139ZM92.5302 7.18182V29H90.016V7.18182H92.5302ZM107.448 22.3097V12.6364H109.962V29H107.448V26.2301H107.277C106.894 27.0611 106.297 27.7678 105.487 28.3501C104.678 28.9254 103.655 29.2131 102.419 29.2131C101.396 29.2131 100.487 28.9893 99.6919 28.5419C98.8965 28.0874 98.2715 27.4055 97.8169 26.4964C97.3624 25.5803 97.1351 24.4261 97.1351 23.0341V12.6364H99.6493V22.8636C99.6493 24.0568 99.9831 25.0085 100.651 25.7188C101.325 26.429 102.185 26.7841 103.229 26.7841C103.854 26.7841 104.49 26.6243 105.136 26.3047C105.789 25.9851 106.336 25.495 106.776 24.8345C107.224 24.174 107.448 23.3324 107.448 22.3097ZM126.158 16.3011L123.899 16.9403C123.757 16.5639 123.548 16.1982 123.271 15.843C123.001 15.4808 122.631 15.1825 122.163 14.9482C121.694 14.7138 121.094 14.5966 120.362 14.5966C119.361 14.5966 118.526 14.8274 117.859 15.2891C117.198 15.7436 116.868 16.3224 116.868 17.0256C116.868 17.6506 117.095 18.1442 117.55 18.5064C118.004 18.8686 118.714 19.1705 119.68 19.4119L122.109 20.0085C123.572 20.3636 124.663 20.907 125.38 21.6385C126.097 22.3629 126.456 23.2969 126.456 24.4403C126.456 25.3778 126.186 26.2159 125.646 26.9545C125.114 27.6932 124.368 28.2756 123.409 28.7017C122.45 29.1278 121.335 29.3409 120.064 29.3409C118.395 29.3409 117.013 28.9787 115.92 28.2543C114.826 27.5298 114.134 26.4716 113.842 25.0795L116.229 24.483C116.456 25.3636 116.886 26.0241 117.518 26.4645C118.157 26.9048 118.991 27.125 120.021 27.125C121.193 27.125 122.124 26.8764 122.812 26.3793C123.509 25.875 123.857 25.2713 123.857 24.5682C123.857 24 123.658 23.5241 123.26 23.1406C122.862 22.75 122.251 22.4588 121.428 22.267L118.7 21.6278C117.202 21.2727 116.101 20.7223 115.398 19.9766C114.702 19.2237 114.354 18.2827 114.354 17.1534C114.354 16.2301 114.613 15.4134 115.131 14.7031C115.657 13.9929 116.371 13.4354 117.273 13.0305C118.182 12.6257 119.212 12.4233 120.362 12.4233C121.982 12.4233 123.253 12.7784 124.176 13.4886C125.107 14.1989 125.767 15.1364 126.158 16.3011Z" fill="black"/>
</svg>
